# xmcd
#
# Track frame offsets:
#	150
#	13543
#	27128
#	44138
#	57514
#	70950
#	84821
#	98021
#	110998
#	124716
#	138124
#	151444
#	164213
#	177267
#	190689
#
# Disc length: 2738 seconds
#
# Revision: 0
# Processed by: cddbd v1.5.2PL0 Copyright (c) Steve Scherf et al.
# Submitted via: audiograbber 1.83.01
#
DISCID=cc0ab00f
DTITLE=Garry Tyus - The Man and His Music
DYEAR=1900
DGENRE=
TTITLE0=Dance With Me
TTITLE1=The Dog
TTITLE2=Cell Phone
TTITLE3=Hanging in on Love
TTITLE4=Santa Monica Beach
TTITLE5=Wishful Thinking
TTITLE6=Thank You
TTITLE7=Cheap Wine
TTITLE8=Storm Clouds
TTITLE9=Memphis
TTITLE10=Happy Birthday
TTITLE11=Ain`t it Bout Time
TTITLE12=Don`t Worry
TTITLE13=Love at First Sight
TTITLE14=Waiting on You
EXTD=
EXTT0=
EXTT1=
EXTT2=
EXTT3=
EXTT4=
EXTT5=
EXTT6=
EXTT7=
EXTT8=
EXTT9=
EXTT10=
EXTT11=
EXTT12=
EXTT13=
EXTT14=
PLAYORDER=
